<?xml version="1.0" encoding="UTF-8"?>
<!DOCTYPE svg PUBLIC "-//W3C//DTD SVG 1.1//EN" "http://www.w3.org/Graphics/SVG/1.1/DTD/svg11.dtd">
<!-- Creator: CorelDRAW X7 -->
<svg xmlns="http://www.w3.org/2000/svg" xml:space="preserve" width="13.5466mm" height="13.5466mm" version="1.1" style="shape-rendering:geometricPrecision; text-rendering:geometricPrecision; image-rendering:optimizeQuality; fill-rule:evenodd; clip-rule:evenodd"
viewBox="0 0 1355 1355"
 xmlns:xlink="http://www.w3.org/1999/xlink">
 <defs>
  <style type="text/css">
   <![CDATA[
    .fil0 {fill:#A020F0}
   ]]>
  </style>
 </defs>
 <g id="Camada_x0020_1">
  <metadata id="CorelCorpID_0Corel-Layer"/>
  <g id="_2257502296896">
   <path class="fil0" d="M690 1239c105,0 208,-36 296,-86 40,-23 64,-42 99,-72l31 -28 -82 -93c-7,-6 -8,-9 -14,-15 -5,-7 -12,-9 -14,-17 -5,1 -28,24 -42,34 -4,3 -6,5 -10,8l-35 23c-51,32 -103,53 -166,63 -82,14 -179,-3 -251,-43 -17,-10 -30,-20 -46,-31 -13,-8 -40,-32 -50,-44l-18 -20c-51,-62 -90,-151 -90,-236 0,-77 5,-126 39,-193 5,-11 9,-21 16,-31 7,-11 12,-19 20,-30 25,-33 38,-47 70,-74 122,-99 287,-114 432,-41 27,14 47,26 69,43 24,18 54,49 60,53l110 -136c-10,-15 -68,-59 -80,-67 -114,-75 -220,-108 -360,-108 -82,0 -178,25 -235,52 -64,30 -100,54 -151,99 -4,4 -6,4 -10,8 -4,3 -6,6 -9,9 -12,13 -23,23 -34,37l-15 20c-6,7 -10,13 -16,21l-28 45c-21,42 -25,45 -43,99 -6,17 -11,36 -16,56 -19,87 -14,173 3,258 9,40 22,73 37,108 12,27 24,44 38,67 14,24 43,61 63,81l19 19c7,6 11,11 18,17 41,39 101,74 154,98 63,28 150,47 241,47z"/>
   <path class="fil0" d="M1025 645c0,29 -1,52 14,78 10,16 16,23 29,36 47,48 135,50 185,-1 13,-13 20,-19 29,-36 24,-48 18,-111 -20,-153l-6 -7c-97,-93 -231,-5 -231,83z"/>
  </g>
 </g>
</svg>
