<svg width="501" height="104" viewBox="0 0 501 104" fill="none" xmlns="http://www.w3.org/2000/svg">
<mask id="mask0_2907_663" style="mask-type:luminance" maskUnits="userSpaceOnUse" x="0" y="0" width="101" height="104">
<path d="M100.651 0H0V103.045H100.651V0Z" fill="white"/>
</mask>
<g mask="url(#mask0_2907_663)">
<path d="M0 0V38.3314L22.9212 20.7097L0 0Z" fill="#19213D"/>
<path d="M0 103.044L22.9212 82.3389L0 64.7305V103.044Z" fill="#19213D"/>
<path d="M42.981 46.2702L96.4621 3.36004C97.8534 2.24375 97.0641 -0.00134277 95.2803 -0.00134277H67.0376L0 51.5325L42.981 46.2702Z" fill="#19213D"/>
<path d="M0 51.5328L67.0376 103.047H95.2811C97.0648 103.047 97.8541 100.802 96.463 99.6854L42.981 56.7664L0 51.5328Z" fill="#19213D"/>
</g>
<mask id="mask1_2907_663" style="mask-type:luminance" maskUnits="userSpaceOnUse" x="400" y="0" width="101" height="104">
<path d="M400.349 0H501V103.045H400.349V0Z" fill="white"/>
</mask>
<g mask="url(#mask1_2907_663)">
<path d="M501 0V38.3314L478.079 20.7097L501 0Z" fill="#19213D"/>
<path d="M501 103.044L478.079 82.3389L501 64.7305V103.044Z" fill="#19213D"/>
<path d="M458.019 46.2702L404.538 3.36004C403.147 2.24375 403.936 -0.00134277 405.72 -0.00134277H433.962L501 51.5325L458.019 46.2702Z" fill="#19213D"/>
<path d="M501 51.5328L433.962 103.047H405.719C403.935 103.047 403.146 100.802 404.537 99.6854L458.019 56.7664L501 51.5328Z" fill="#19213D"/>
</g>
<mask id="mask2_2907_663" style="mask-type:luminance" maskUnits="userSpaceOnUse" x="92" y="11" width="79" height="81">
<path d="M170.729 11.9602H92.5336V91.1925H170.729V11.9602Z" fill="white"/>
</mask>
<g mask="url(#mask2_2907_663)">
<path d="M131.696 86.8317C137.259 81.6861 141.104 74.9531 142.708 67.547C142.872 67.9412 143.112 68.2998 143.413 68.603C143.714 68.906 144.073 69.1456 144.469 69.3081C145.306 69.6439 146.24 69.6439 147.076 69.3081C147.476 69.1483 147.839 68.9084 148.142 68.603C148.443 68.2998 148.682 67.9412 148.846 67.547C149.014 67.1332 149.099 66.6901 149.095 66.2433V11.9602H170.734V66.2412C170.749 69.5846 170.083 72.896 168.778 75.9742C166.259 81.9639 161.494 86.7282 155.503 89.2457C152.997 90.3062 150.329 90.9369 147.613 91.1111C147.562 91.1199 147.51 91.1253 147.459 91.1273C144.281 91.3441 141.091 90.9507 138.061 89.9682C137.648 89.8389 137.237 89.6933 136.832 89.539C135.019 88.8437 133.295 87.9349 131.696 86.8317Z" fill="#19213D"/>
<path d="M92.5337 66.2411V11.9602H114.129V66.2411C114.125 66.6689 114.21 67.0928 114.378 67.4862C114.56 67.9027 114.818 68.2814 115.138 68.603C115.44 68.906 115.799 69.1456 116.194 69.3081C117.031 69.6439 117.965 69.6439 118.802 69.3081C119.201 69.1482 119.564 68.9084 119.868 68.603C120.171 68.2965 120.412 67.9352 120.58 67.5383C120.747 67.1265 120.828 66.6853 120.82 66.2411V11.9602H142.468V66.2411C142.459 66.6882 142.544 67.1322 142.717 67.5448C141.113 74.9509 137.268 81.6839 131.705 86.8295C131.679 86.8121 131.644 86.7861 131.619 86.7698C130.949 87.234 130.261 87.6636 129.555 88.0583C129.53 88.0739 129.504 88.088 129.478 88.1006C129.443 88.118 129.401 88.1441 129.349 88.1702C128.409 88.694 127.433 89.1504 126.428 89.5358C120.387 91.8705 113.674 91.7602 107.713 89.228C101.752 86.6958 97.0117 81.9409 94.4979 75.972C93.1908 72.8949 92.5226 69.5843 92.5337 66.2411Z" fill="#2388FF"/>
<g style="mix-blend-mode:multiply" opacity="0.16">
<path d="M131.696 86.8317C137.259 81.686 141.104 74.9531 142.708 67.547C142.872 67.9411 143.112 68.2997 143.413 68.603C143.714 68.9059 144.073 69.1456 144.469 69.308C145.306 69.6437 146.24 69.6437 147.076 69.308C147.476 69.1482 147.839 68.9083 148.142 68.603C148.443 68.2997 148.682 67.9411 148.846 67.547C149.014 67.1332 149.099 66.69 149.095 66.2433C149.193 70.778 148.25 75.275 146.338 79.3882C144.426 83.5013 141.596 87.1211 138.066 89.9692C137.653 89.8399 137.241 89.6943 136.837 89.5401C135.022 88.8447 133.296 87.9355 131.696 86.8317Z" fill="black"/>
</g>
<g style="mix-blend-mode:screen" opacity="0.7">
<path d="M92.5338 66.241V21.8897C92.5338 21.8897 92.6109 23.3933 92.7054 26.018C92.7826 28.6471 92.9455 32.4093 93.0487 36.9103C93.1693 41.421 93.266 46.6781 93.3236 52.3133C93.3497 55.1303 93.3758 58.043 93.4007 61.0045C93.4094 62.482 93.4094 63.9682 93.4181 65.4707C93.3927 66.9275 93.4846 68.384 93.693 69.8261C94.1107 72.6855 95.0419 75.4459 96.4416 77.9741C97.7913 80.4316 99.5487 82.642 101.639 84.511C103.616 86.2469 105.852 87.6639 108.266 88.711C110.446 89.6466 112.749 90.266 115.104 90.5503C118.671 90.9883 122.291 90.6601 125.721 89.5877C126.691 89.2927 127.641 88.9341 128.564 88.5144C129.028 88.3079 129.338 88.1624 129.467 88.0928C128.486 88.6432 127.467 89.1227 126.418 89.528C120.376 91.8628 113.663 91.7524 107.702 89.2202C101.741 86.688 97.0009 81.9332 94.4871 75.9642C93.1848 72.8888 92.5202 69.5809 92.5338 66.241Z" fill="white"/>
</g>
<g style="mix-blend-mode:screen" opacity="0.7">
<path d="M107.412 11.9602H114.129V37.3527C113.829 35.2396 113.666 33.1157 113.519 31.0037C113.459 29.9477 113.399 28.8907 113.356 27.826L113.261 24.6559C113.228 22.5428 113.219 20.4189 113.261 18.308C113.287 16.3927 113.37 14.4676 113.468 12.5501C112.566 12.4904 111.672 12.4295 110.77 12.3328C109.658 12.2383 108.528 12.1232 107.412 11.9602Z" fill="white"/>
</g>
<g style="mix-blend-mode:screen" opacity="0.7">
<path d="M120.812 59.9183V11.9602H134.685C132.374 12.1319 130.064 12.2524 127.753 12.3633C125.666 12.4491 123.579 12.5349 121.491 12.5957C121.534 14.3818 121.585 16.1689 121.611 17.956C121.637 19.9485 121.688 21.9497 121.688 23.9519L121.706 29.9391L121.68 35.9349C121.629 39.9296 121.55 43.933 121.422 47.9266C121.276 51.9213 121.104 55.9117 120.812 59.9183Z" fill="white"/>
</g>
<g style="mix-blend-mode:multiply" opacity="0.25">
<path d="M149.094 58.6124V11.9602H168.191C166.602 12.0688 165.012 12.1579 163.411 12.2264C161.81 12.2948 160.233 12.398 158.644 12.4436C157.054 12.4893 155.456 12.5729 153.864 12.599L149.86 12.7076C149.929 16.3493 149.969 19.9884 149.981 23.6249C149.997 25.5663 149.981 27.5077 149.972 29.4578C149.963 31.4079 149.963 33.3406 149.92 35.2907L149.811 41.1149C149.76 43.065 149.726 45.0064 149.648 46.9478C149.589 48.8982 149.509 50.8425 149.408 52.7806C149.312 54.722 149.238 56.6721 149.094 58.6124Z" fill="black"/>
</g>
<g style="mix-blend-mode:multiply" opacity="0.25">
<path d="M147.613 91.1109C147.983 91.0588 148.73 90.9306 149.778 90.6981C151.867 90.2328 153.889 89.5114 155.8 88.5503C157.062 87.9174 158.271 87.1851 159.416 86.3601C160.685 85.4458 161.867 84.4162 162.947 83.2845C164.099 82.0766 165.126 80.7558 166.014 79.3419C166.94 77.8869 167.708 76.3377 168.307 74.7204C168.924 73.1188 169.361 71.4537 169.611 69.7555C169.839 68.0847 169.948 66.3998 169.937 64.7135C169.996 61.3631 170.091 58.2277 170.212 55.5389C170.429 50.1699 170.726 46.588 170.726 46.588V66.2421C170.741 69.5855 170.076 72.897 168.771 75.9752C166.254 81.963 161.491 86.7266 155.504 89.2456C152.997 90.3062 150.33 90.9368 147.613 91.1109Z" fill="black"/>
</g>
<g style="mix-blend-mode:screen" opacity="0.7">
<path d="M131.696 86.8319L132.658 85.8008L133.577 84.7361C134.187 84.0223 134.772 83.2923 135.315 82.5373C135.858 81.7823 136.389 81.0075 136.878 80.2177C137.367 79.4279 137.832 78.6198 138.279 77.8039C138.725 76.988 139.112 76.1459 139.49 75.305C139.868 74.4642 140.203 73.5951 140.521 72.7282C140.839 71.8612 141.105 70.9757 141.354 70.0903L141.697 68.7422L141.939 67.6166V67.6079C141.756 67.0397 141.677 66.443 141.706 65.8468L141.68 64.1086L141.638 60.6322L141.603 53.6792C141.586 51.3598 141.603 49.0489 141.612 46.7262C141.62 44.4034 141.62 42.0872 141.664 39.7732C141.707 35.1437 141.789 30.511 141.913 25.8749C141.972 23.5554 142.042 21.236 142.144 18.922C142.246 16.6079 142.317 14.2928 142.454 11.969V66.2499C142.445 66.697 142.53 67.1411 142.702 67.5537C141.098 74.9567 137.256 81.6872 131.696 86.8319Z" fill="white"/>
</g>
</g>
<path d="M197.033 92.0317V42.935H195.092L195.901 35.4127H204.717V54.7441L206.739 51.5896H208.923C211.404 51.5896 213.372 52.2906 214.828 53.6926C216.338 55.0946 217.093 56.901 217.093 59.1118V84.5095C217.093 86.6664 216.338 88.4728 214.828 89.9287C213.372 91.3307 211.404 92.0317 208.923 92.0317H208.6C207.144 92.0317 205.85 91.6812 204.717 90.9802V92.0317H197.033ZM209.004 59.1118H204.717V84.5095H209.004C209.274 84.5095 209.409 84.3747 209.409 84.105V59.5162C209.409 59.2466 209.274 59.1118 209.004 59.1118Z" fill="#19213D"/>
<path d="M172.836 84.833V58.7883C172.836 56.5235 173.537 54.7171 174.939 53.369C176.341 51.967 178.175 51.2661 180.439 51.2661H185.454C187.719 51.2661 189.552 51.967 190.954 53.369C192.356 54.7171 193.057 56.5235 193.057 58.7883V68.7371H185.373V59.1927C185.373 58.9231 185.239 58.7883 184.969 58.7883H180.925C180.655 58.7883 180.52 58.9231 180.52 59.1927V68.7371H193.057V76.2593H180.52V84.4286C180.52 84.6982 180.655 84.833 180.925 84.833H184.969C185.239 84.833 185.373 84.7252 185.373 84.5095V80.0608H193.057V84.833C193.057 87.0978 192.356 88.9312 190.954 90.3331C189.552 91.6812 187.719 92.3553 185.454 92.3553H180.439C178.175 92.3553 176.341 91.6812 174.939 90.3331C173.537 88.9312 172.836 87.0978 172.836 84.833Z" fill="#19213D"/>
<path d="M390.014 75.6122L398.696 76.526V81.0041C398.696 81.3087 398.849 81.461 399.153 81.461H402.809C403.113 81.461 403.266 81.3087 403.266 81.0041V72.5049L395.132 69.0322C394.157 68.6057 393.061 67.9355 391.842 67.0216C390.624 66.1077 390.014 64.615 390.014 62.5436V52.3994C390.014 49.8405 390.806 47.7995 392.39 46.2764C393.974 44.6923 396.046 43.9003 398.605 43.9003H403.357C405.916 43.9003 407.987 44.6923 409.571 46.2764C411.156 47.7995 411.948 49.8405 411.948 52.3994V58.2483L403.266 57.3344V52.8564C403.266 52.5517 403.113 52.3994 402.809 52.3994H399.153C398.849 52.3994 398.696 52.5517 398.696 52.8564V61.3555L406.83 64.8283C407.805 65.2548 408.901 65.9249 410.12 66.8388C411.338 67.7527 411.948 69.2454 411.948 71.3169V81.461C411.948 84.0199 411.156 86.0914 409.571 87.6755C407.987 89.1986 405.916 89.9602 403.357 89.9602H398.605C396.046 89.9602 393.974 89.1986 392.39 87.6755C390.806 86.0914 390.014 84.0199 390.014 81.461V75.6122Z" fill="#19213D"/>
<path d="M378.646 44.2658V48.2869L381.113 44.2658H387.236V53.1305H378.646V89.9602H369.964V52.765H367.77L368.684 44.2658H378.646Z" fill="#19213D"/>
<path d="M341.732 81.8266V52.3994C341.732 49.8405 342.524 47.7995 344.108 46.2764C345.692 44.6923 347.763 43.9003 350.322 43.9003H355.988C358.547 43.9003 360.619 44.6923 362.203 46.2764C363.787 47.7995 364.579 49.8405 364.579 52.3994V63.6402H355.897V52.8564C355.897 52.5517 355.745 52.3994 355.44 52.3994H350.871C350.566 52.3994 350.414 52.5517 350.414 52.8564V63.6402H364.579V72.1394H350.414V81.3696C350.414 81.6743 350.566 81.8266 350.871 81.8266H355.44C355.745 81.8266 355.897 81.7047 355.897 81.461V76.4347H364.579V81.8266C364.579 84.3855 363.787 86.4569 362.203 88.041C360.619 89.5642 358.547 90.3257 355.988 90.3257H350.322C347.763 90.3257 345.692 89.5642 344.108 88.041C342.524 86.4569 341.732 84.3855 341.732 81.8266Z" fill="#19213D"/>
<path d="M339.448 81.461V89.9601H334.148C331.589 89.9601 329.518 89.1986 327.934 87.6754C326.349 86.0913 325.557 84.0199 325.557 81.461V52.7649H321.719L322.45 44.2658H325.557V34.4872H323.273L324.004 25.988H334.239V44.2658H339.448L338.717 52.7649H334.239V81.461H339.448Z" fill="#19213D"/>
<path d="M303.067 44.2658H305.991V34.4872C305.991 31.9283 306.783 29.8873 308.367 28.3641C309.951 26.7801 312.023 25.988 314.581 25.988H319.882V34.4872H314.673V44.2658H319.151L318.237 52.7649H314.673V89.9601H305.991V52.7649H302.153L303.067 44.2658Z" fill="#19213D"/>
<path d="M285.633 89.9602C282.831 89.9602 280.577 89.1681 278.871 87.5841C277.226 85.9391 276.403 83.898 276.403 81.461V52.765C276.403 50.267 277.226 48.226 278.871 46.6419C280.577 45.0578 282.831 44.2658 285.633 44.2658H285.999C287.644 44.2658 289.106 44.6618 290.386 45.4539V44.2658H299.068V81.461H300.347L301.261 89.9602H290.386V86.396L288.101 89.9602H285.633ZM285.542 52.765C285.237 52.765 285.085 52.9173 285.085 53.2219V81.0041C285.085 81.3087 285.237 81.461 285.542 81.461H290.386V52.765H285.542Z" fill="#19213D"/>
<path d="M265.481 44.2658V48.2869L267.948 44.2658H274.071V53.1305H265.481V89.9602H256.799V52.765H254.605L255.519 44.2658H265.481Z" fill="#19213D"/>
<path d="M251.857 63.4574V77.6227C251.857 82.2531 250.822 85.604 248.75 87.6754C246.74 89.686 243.389 90.6913 238.697 90.6913H234.676C229.985 90.6913 226.604 89.686 224.532 87.6754C222.522 85.604 221.516 82.2531 221.516 77.6227V38.3255C221.516 33.6343 222.522 30.2833 224.532 28.2728C226.604 26.2622 229.985 25.257 234.676 25.257H238.697C243.389 25.257 246.74 26.2622 248.75 28.2728C250.822 30.2833 251.857 33.6343 251.857 38.3255V53.4047L239.429 52.0338V37.8686C239.429 37.564 239.276 37.4117 238.972 37.4117H234.402C234.098 37.4117 233.945 37.564 233.945 37.8686V78.0796C233.945 78.3843 234.098 78.5366 234.402 78.5366H238.972C239.276 78.5366 239.429 78.3843 239.429 78.0796V63.4574H251.857Z" fill="#19213D"/>
</svg>
