<svg width="91" height="150" viewBox="0 0 91 150" fill="none" xmlns="http://www.w3.org/2000/svg">
<mask id="mask0_2907_619" style="mask-type:luminance" maskUnits="userSpaceOnUse" x="20" y="0" width="51" height="49">
<path d="M70.3252 48.6563L70.3252 0L20.5115 -2.17742e-06L20.5115 48.6563L70.3252 48.6563Z" fill="white"/>
</mask>
<g mask="url(#mask0_2907_619)">
<path d="M70.3252 0L51.7951 -8.09975e-07L60.3137 11.0805L70.3252 0Z" fill="#19213D"/>
<path d="M20.5119 -8.09592e-07L30.5211 11.0805L39.0332 0L20.5119 -8.09592e-07Z" fill="#19213D"/>
<path d="M47.957 20.7778L66.4137 43.7813C67.7128 45.4004 70.3255 44.4818 70.3255 42.406L70.3255 32.4072L45.4131 -1.08895e-06L47.957 20.7778Z" fill="#19213D"/>
<path d="M45.4133 0L20.5106 32.4072L20.5105 42.4069C20.5105 44.4826 23.1231 45.4013 24.4222 43.7824L42.8833 20.7778L45.4133 0Z" fill="#19213D"/>
</g>
<mask id="mask1_2907_619" style="mask-type:luminance" maskUnits="userSpaceOnUse" x="0" y="57" width="91" height="93">
<path d="M91 57.1392H0V149.345H91V57.1392Z" fill="white"/>
</mask>
<g mask="url(#mask1_2907_619)">
<path d="M45.5751 144.27C52.0489 138.282 56.523 130.447 58.3899 121.828C58.5815 122.286 58.8602 122.704 59.2104 123.057C59.5614 123.409 59.9792 123.688 60.4394 123.877C61.413 124.268 62.5 124.268 63.4736 123.877C63.9387 123.691 64.3609 123.412 64.714 123.057C65.0638 122.704 65.3421 122.286 65.5332 121.828C65.7292 121.346 65.8277 120.831 65.8228 120.311V57.139H91.0048V120.308C91.0223 124.199 90.248 128.053 88.7291 131.635C85.7977 138.605 80.2519 144.15 73.2808 147.079C70.3636 148.314 67.2593 149.048 64.0983 149.25C64.0388 149.261 63.9788 149.267 63.9186 149.269C60.2206 149.521 56.5085 149.064 52.9826 147.92C52.5022 147.77 52.0229 147.6 51.5526 147.421C49.4421 146.612 47.4354 145.554 45.5751 144.27Z" fill="#19213D"/>
<path d="M0.000160354 120.308V57.1392H25.1317V120.308C25.1273 120.806 25.2259 121.299 25.4213 121.757C25.6325 122.242 25.9328 122.683 26.3063 123.057C26.6572 123.409 27.075 123.688 27.5352 123.877C28.5089 124.268 29.5958 124.268 30.5695 123.877C31.0346 123.691 31.4567 123.412 31.8097 123.057C32.1623 122.7 32.4438 122.28 32.6391 121.818C32.8329 121.339 32.928 120.825 32.9185 120.308V57.1392H58.1108V120.308C58.101 120.829 58.1996 121.345 58.4003 121.825C56.5335 130.444 52.0594 138.28 45.5855 144.268C45.5551 144.248 45.5147 144.217 45.4856 144.198C44.706 144.739 43.9052 145.238 43.0834 145.698C43.0546 145.716 43.0246 145.732 42.9937 145.747C42.9532 145.767 42.9039 145.798 42.8432 145.828C41.7496 146.438 40.6139 146.969 39.4448 147.417C32.4144 150.134 24.6021 150.006 17.665 147.059C10.7278 144.112 5.21139 138.579 2.28598 131.633C0.764819 128.052 -0.0128404 124.199 0.000160354 120.308Z" fill="#2388FF"/>
<g style="mix-blend-mode:multiply" opacity="0.16">
<path d="M45.5751 144.27C52.0489 138.282 56.523 130.447 58.3899 121.828C58.5815 122.287 58.8602 122.704 59.2104 123.057C59.5614 123.41 59.9792 123.688 60.4394 123.877C61.413 124.268 62.5 124.268 63.4736 123.877C63.9387 123.691 64.3609 123.412 64.714 123.057C65.0638 122.704 65.3421 122.287 65.5332 121.828C65.7292 121.346 65.8277 120.831 65.8228 120.311C65.9371 125.588 64.8395 130.821 62.6144 135.608C60.3892 140.395 57.0959 144.607 52.9875 147.922C52.5071 147.771 52.0279 147.602 51.5576 147.422C49.4454 146.613 47.4369 145.555 45.5751 144.27Z" fill="black"/>
</g>
<g style="mix-blend-mode:screen" opacity="0.7">
<path d="M0.000237301 120.308V68.6945C0.000237301 68.6945 0.0899888 70.4443 0.199982 73.4988C0.289747 76.5584 0.479403 80.9367 0.599511 86.1746C0.739848 91.424 0.852357 97.5419 0.919365 104.1C0.949708 107.378 0.98007 110.768 1.00915 114.214C1.01926 115.934 1.01925 117.663 1.02937 119.412C0.9998 121.107 1.10676 122.802 1.34922 124.48C1.83536 127.808 2.919 131.02 4.54788 133.962C6.11862 136.822 8.16384 139.395 10.5963 141.57C12.8973 143.59 15.4993 145.239 18.3085 146.457C20.8455 147.546 23.5251 148.267 26.2659 148.598C30.4174 149.108 34.6297 148.726 38.6219 147.478C39.751 147.134 40.8563 146.717 41.9305 146.229C42.4704 145.988 42.8307 145.819 42.9811 145.738C41.8395 146.379 40.6535 146.937 39.4323 147.408C32.4019 150.125 24.5896 149.997 17.6524 147.05C10.7152 144.103 5.19886 138.57 2.27344 131.623C0.75779 128.044 -0.0155627 124.195 0.000237301 120.308Z" fill="white"/>
</g>
<g style="mix-blend-mode:screen" opacity="0.7">
<path d="M17.3149 57.139H25.132V86.6893C24.7818 84.2302 24.5921 81.7585 24.4215 79.3008C24.3519 78.0719 24.2824 76.8417 24.2318 75.6027L24.1218 71.9135C24.0826 69.4544 24.0725 66.9827 24.1218 64.5262C24.1522 62.2973 24.2483 60.057 24.362 57.8255C23.3127 57.756 22.2722 57.6851 21.2228 57.5726C19.9282 57.4626 18.6133 57.3286 17.3149 57.139Z" fill="white"/>
</g>
<g style="mix-blend-mode:screen" opacity="0.7">
<path d="M32.9087 112.95V57.139H49.0537C46.3645 57.3387 43.6754 57.4791 40.9862 57.608C38.5575 57.7079 36.1288 57.8078 33.6988 57.8786C33.7494 59.9571 33.8088 62.0368 33.8392 64.1166C33.8695 66.4353 33.9288 68.7641 33.9288 71.0942L33.9492 78.0618L33.9187 85.0394C33.8593 89.6882 33.7683 94.3471 33.6191 98.9947C33.4484 103.643 33.2488 108.287 32.9087 112.95Z" fill="white"/>
</g>
<g style="mix-blend-mode:multiply" opacity="0.25">
<path d="M65.8222 111.43V57.139H88.046C86.1963 57.2654 84.3467 57.3691 82.4831 57.4487C80.6195 57.5284 78.785 57.6485 76.9354 57.7016C75.0857 57.7547 73.2259 57.852 71.3725 57.8824L66.7136 58.0088C66.7937 62.2467 66.8405 66.4817 66.8539 70.7137C66.8729 72.973 66.8539 75.2323 66.8438 77.5017C66.8337 79.7711 66.8337 82.0203 66.7831 84.2897L66.6567 91.0675C66.5972 93.3369 66.5568 95.5962 66.467 97.8555C66.3979 100.125 66.3048 102.388 66.1876 104.644C66.0751 106.903 65.9891 109.172 65.8222 111.43Z" fill="black"/>
</g>
<g style="mix-blend-mode:multiply" opacity="0.25">
<path d="M64.0986 149.25C64.5285 149.19 65.3983 149.041 66.6184 148.77C69.0484 148.228 71.4022 147.389 73.6264 146.27C75.0945 145.534 76.5014 144.682 77.8339 143.722C79.3109 142.658 80.6863 141.459 81.9429 140.142C83.2837 138.737 84.4794 137.2 85.512 135.554C86.5895 133.861 87.4841 132.058 88.1809 130.176C88.8989 128.312 89.4078 126.374 89.698 124.398C89.9641 122.454 90.0907 120.493 90.0773 118.531C90.1469 114.632 90.2569 110.983 90.3972 107.854C90.6501 101.606 90.9965 97.4371 90.9965 97.4371V120.309C91.0138 124.2 90.2395 128.054 88.7208 131.636C85.7911 138.605 80.2487 144.148 73.2812 147.08C70.3641 148.314 67.2598 149.048 64.0986 149.25Z" fill="black"/>
</g>
<g style="mix-blend-mode:screen" opacity="0.7">
<path d="M45.5751 144.27L46.694 143.07L47.7636 141.831C48.4741 141.001 49.1542 140.151 49.7863 139.273C50.4185 138.394 51.0369 137.492 51.6058 136.573C52.1747 135.654 52.7157 134.714 53.2353 133.764C53.755 132.815 54.2052 131.835 54.6452 130.856C55.0851 129.878 55.4744 128.866 55.8448 127.857C56.2153 126.848 56.5252 125.818 56.8147 124.787L57.2141 123.219L57.4947 121.909V121.899C57.2821 121.237 57.1904 120.543 57.2242 119.849L57.194 117.826L57.1447 113.781L57.1042 105.689C57.084 102.99 57.1042 100.301 57.1143 97.5976C57.1244 94.8946 57.1243 92.1991 57.1749 89.5061C57.2247 84.1186 57.3212 78.7273 57.4644 73.332C57.5339 70.6328 57.615 67.9336 57.7338 65.2406C57.8527 62.5477 57.9347 59.8535 58.094 57.1492V120.318C58.0842 120.839 58.1828 121.355 58.3835 121.835C56.5169 130.451 52.0453 138.283 45.5751 144.27Z" fill="white"/>
</g>
</g>
</svg>
